ModelForces
version=1
nRows=4
nColumns=206
inDegrees=no

This file contains the forces exerted on a model during a simulation.

A force is a generalized force, meaning that it can be either a force (N) or a torque (Nm).

Units are S.I. units (second, meters, Newtons, ...)
Angles are in degrees.

endheader
time	glut_med1_r	glut_med2_r	glut_med3_r	glut_min1_r	glut_min2_r	glut_min3_r	semimem_r	semiten_r	bifemlh_r	bifemsh_r	sar_r	add_long_r	add_brev_r	add_mag1_r	add_mag2_r	add_mag3_r	tfl_r	pect_r	grac_r	glut_max1_r	glut_max2_r	glut_max3_r	iliacus_r	psoas_r	quad_fem_r	gem_r	peri_r	rect_fem_r	vas_med_r	vas_int_r	vas_lat_r	med_gas_r	lat_gas_r	soleus_r	tib_post_r	flex_dig_r	flex_hal_r	tib_ant_r	per_brev_r	per_long_r	per_tert_r	ext_dig_r	ext_hal_r	glut_med1_l	glut_med2_l	glut_med3_l	glut_min1_l	glut_min2_l	glut_min3_l	semimem_l	semiten_l	bifemlh_l	bifemsh_l	sar_l	add_long_l	add_brev_l	add_mag1_l	add_mag2_l	add_mag3_l	tfl_l	pect_l	grac_l	glut_max1_l	glut_max2_l	glut_max3_l	iliacus_l	psoas_l	quad_fem_l	gem_l	peri_l	rect_fem_l	vas_med_l	vas_int_l	vas_lat_l	med_gas_l	lat_gas_l	soleus_l	tib_post_l	flex_dig_l	flex_hal_l	tib_ant_l	per_brev_l	per_long_l	per_tert_l	ext_dig_l	ext_hal_l	ercspn_r	ercspn_l	intobl_r	intobl_l	extobl_r	extobl_l	femur_lat_meniscii_l.femur_lat_l.force.X	femur_lat_meniscii_l.femur_lat_l.force.Y	femur_lat_meniscii_l.femur_lat_l.force.Z	femur_lat_meniscii_l.femur_lat_l.torque.X	femur_lat_meniscii_l.femur_lat_l.torque.Y	femur_lat_meniscii_l.femur_lat_l.torque.Z	femur_lat_meniscii_l.meniscus_lat_l.force.X	femur_lat_meniscii_l.meniscus_lat_l.force.Y	femur_lat_meniscii_l.meniscus_lat_l.force.Z	femur_lat_meniscii_l.meniscus_lat_l.torque.X	femur_lat_meniscii_l.meniscus_lat_l.torque.Y	femur_lat_meniscii_l.meniscus_lat_l.torque.Z	femur_med_meniscii_l.femur_med_l.force.X	femur_med_meniscii_l.femur_med_l.force.Y	femur_med_meniscii_l.femur_med_l.force.Z	femur_med_meniscii_l.femur_med_l.torque.X	femur_med_meniscii_l.femur_med_l.torque.Y	femur_med_meniscii_l.femur_med_l.torque.Z	femur_med_meniscii_l.meniscus_med_l.force.X	femur_med_meniscii_l.meniscus_med_l.force.Y	femur_med_meniscii_l.meniscus_med_l.force.Z	femur_med_meniscii_l.meniscus_med_l.torque.X	femur_med_meniscii_l.meniscus_med_l.torque.Y	femur_med_meniscii_l.meniscus_med_l.torque.Z	femur_lat_meniscii_r.femur_lat_r.force.X	femur_lat_meniscii_r.femur_lat_r.force.Y	femur_lat_meniscii_r.femur_lat_r.force.Z	femur_lat_meniscii_r.femur_lat_r.torque.X	femur_lat_meniscii_r.femur_lat_r.torque.Y	femur_lat_meniscii_r.femur_lat_r.torque.Z	femur_lat_meniscii_r.meniscus_lat_r.force.X	femur_lat_meniscii_r.meniscus_lat_r.force.Y	femur_lat_meniscii_r.meniscus_lat_r.force.Z	femur_lat_meniscii_r.meniscus_lat_r.torque.X	femur_lat_meniscii_r.meniscus_lat_r.torque.Y	femur_lat_meniscii_r.meniscus_lat_r.torque.Z	femur_med_meniscii_r.femur_med_r.force.X	femur_med_meniscii_r.femur_med_r.force.Y	femur_med_meniscii_r.femur_med_r.force.Z	femur_med_meniscii_r.femur_med_r.torque.X	femur_med_meniscii_r.femur_med_r.torque.Y	femur_med_meniscii_r.femur_med_r.torque.Z	femur_med_meniscii_r.meniscus_med_r.force.X	femur_med_meniscii_r.meniscus_med_r.force.Y	femur_med_meniscii_r.meniscus_med_r.force.Z	femur_med_meniscii_r.meniscus_med_r.torque.X	femur_med_meniscii_r.meniscus_med_r.torque.Y	femur_med_meniscii_r.meniscus_med_r.torque.Z	femur_med_tibia_l.tibia_upper_l.force.X	femur_med_tibia_l.tibia_upper_l.force.Y	femur_med_tibia_l.tibia_upper_l.force.Z	femur_med_tibia_l.tibia_upper_l.torque.X	femur_med_tibia_l.tibia_upper_l.torque.Y	femur_med_tibia_l.tibia_upper_l.torque.Z	femur_med_tibia_l.femur_med_l.force.X	femur_med_tibia_l.femur_med_l.force.Y	femur_med_tibia_l.femur_med_l.force.Z	femur_med_tibia_l.femur_med_l.torque.X	femur_med_tibia_l.femur_med_l.torque.Y	femur_med_tibia_l.femur_med_l.torque.Z	femur_lat_tibia_l.tibia_upper_l.force.X	femur_lat_tibia_l.tibia_upper_l.force.Y	femur_lat_tibia_l.tibia_upper_l.force.Z	femur_lat_tibia_l.tibia_upper_l.torque.X	femur_lat_tibia_l.tibia_upper_l.torque.Y	femur_lat_tibia_l.tibia_upper_l.torque.Z	femur_lat_tibia_l.femur_lat_l.force.X	femur_lat_tibia_l.femur_lat_l.force.Y	femur_lat_tibia_l.femur_lat_l.force.Z	femur_lat_tibia_l.femur_lat_l.torque.X	femur_lat_tibia_l.femur_lat_l.torque.Y	femur_lat_tibia_l.femur_lat_l.torque.Z	femur_med_tibia_r.tibia_upper_r.force.X	femur_med_tibia_r.tibia_upper_r.force.Y	femur_med_tibia_r.tibia_upper_r.force.Z	femur_med_tibia_r.tibia_upper_r.torque.X	femur_med_tibia_r.tibia_upper_r.torque.Y	femur_med_tibia_r.tibia_upper_r.torque.Z	femur_med_tibia_r.femur_med_r.force.X	femur_med_tibia_r.femur_med_r.force.Y	femur_med_tibia_r.femur_med_r.force.Z	femur_med_tibia_r.femur_med_r.torque.X	femur_med_tibia_r.femur_med_r.torque.Y	femur_med_tibia_r.femur_med_r.torque.Z	femur_lat_tibia_r.tibia_upper_r.force.X	femur_lat_tibia_r.tibia_upper_r.force.Y	femur_lat_tibia_r.tibia_upper_r.force.Z	femur_lat_tibia_r.tibia_upper_r.torque.X	femur_lat_tibia_r.tibia_upper_r.torque.Y	femur_lat_tibia_r.tibia_upper_r.torque.Z	femur_lat_tibia_r.femur_lat_r.force.X	femur_lat_tibia_r.femur_lat_r.force.Y	femur_lat_tibia_r.femur_lat_r.force.Z	femur_lat_tibia_r.femur_lat_r.torque.X	femur_lat_tibia_r.femur_lat_r.torque.Y	femur_lat_tibia_r.femur_lat_r.torque.Z	aACL_R	pACL_R	aPCL_R	pPCL_R	aMCL_R	mMCL_R	pMCL_R	aLCL_R	mLCL_R	pLCL_R	aPCL_L	pPCL_L	aMCL_L	aLCL_L	ground_prescribedForce_-90_fx	ground_prescribedForce_-90_fy	ground_prescribedForce_-90_fz
      0.74969704	      7.54754659	      5.66547467	      6.06441420	      2.65880981	      3.17881022	      3.19257119	      0.00000000	      3.15512211	      3.52223847	      5.16756920	      1.46987118	      5.61300188	      4.14086691	      2.91878133	      2.45360004	      3.98722698	      3.19035041	      2.23860715	      1.36548171	      3.65589449	      5.55572988	      4.14720843	     22.64709943	     12.96628953	      3.62649883	      2.85423522	      4.08980917	    243.29126342	     43.20126803	     84.05504736	     59.97628708	      0.00000000	      0.00000000	     11.50788530	     13.81960810	      2.61535184	      3.18940211	     12.37711154	      3.70808696	      7.63902893	      9.43145851	      7.97355712	      1.69172714	      7.54754659	      5.66547467	      6.06441420	      2.65880981	      3.17881022	      3.19257119	      8.74466175	      4.08301798	      7.68241168	      7.21567152	      1.51967152	      5.61300188	      4.14086691	      2.91878133	      2.45360004	      3.98722698	      4.09687899	      2.23860715	      1.55862746	      3.65589449	      5.55572988	      4.14720843	     22.64709943	     12.96628953	      3.62649883	      2.85423522	      4.08980917	     10.66656631	      6.59235182	      7.56194746	      8.13113889	     13.95240498	      6.47842240	     31.08524954	     42.35878356	      2.57896845	      2.83804001	      8.45134408	      4.33377648	     12.44613347	      2.00579706	      5.36452179	      1.70269845	     25.00540285	     25.00540285	      8.99968543	      8.99968543	     26.80432654	     26.80432654	      2.76307435	     50.99597937	     -9.56042239	      5.21997485	     -0.02578839	      1.48581788	     -2.76307435	    -50.99597937	      9.56042239	     -1.74637766	      0.02558040	     -0.48301696	     -3.31599387	     20.97615968	     -3.40468921	      0.94473225	     -0.02138609	     -1.00501789	      3.31599387	    -20.97615968	      3.40468921	      0.28075727	      0.00368718	     -0.29758878	    268.19568592	      3.19660404	     57.11050736	    -23.19858775	      6.66483397	    108.95936672	   -268.19568592	     -3.19660404	    -57.11050736	      0.26760849	     -9.31645212	     -1.12516650	    164.82740363	   -109.91727929	    -25.06764815	      8.03763101	     -3.13650347	     66.43434263	   -164.82740363	    109.91727929	     25.06764815	      1.60878938	      3.21010898	     -3.32894476	      0.00000000	      0.00000000	      0.00000000	      0.00000000	      0.00000000	      0.00000000	      0.00000000	      0.00000000	      0.00000000	      0.00000000	      0.00000000	      0.00000000	      0.00000000	      0.00000000	      0.00000000	      0.00000000	      0.00000000	      0.00000000	      0.00000000	      0.00000000	      0.00000000	      0.00000000	      0.00000000	      0.00000000	   -509.44534572	      9.85729199	    103.90994893	     -0.21474095	      9.83046565	     -1.96541202	    509.44534572	     -9.85729199	   -103.90994893	     41.92101206	     -8.85473142	    206.34860942	      0.00000000	      0.00000000	      0.00000000	      0.00000000	      0.00000000	      0.00000000	      0.00000000	      0.00000000	      0.00000000	      0.00000000	      0.00000000	      0.00000000	      0.00000000	      0.00000000	    840.33431832	    399.66219584	     19.34934844	      6.94015452	      1.02138298	      0.00000000	      0.00000000	      0.00000000	      0.00000000	      0.00000000	      0.00000001	      0.00000000	      0.00000000	   -110.00000000	      0.00000000
      0.75146980	      7.54750087	      5.66544317	      6.06438006	      2.65879566	      3.17879491	      3.19255189	      0.00000000	      3.15562546	      3.52175147	      5.16886912	      1.47072245	      5.61297031	      4.14084506	      2.91876522	      2.45358617	      3.98720201	      3.19270472	      2.23859515	      1.36553617	      3.65587417	      5.55569892	      4.14718490	     22.64704232	     12.96622533	      3.62647910	      2.85422599	      4.08977204	    243.29884679	     43.20689974	     84.06392910	     59.97555944	      0.00000000	      0.00000000	     11.51491948	     13.82111499	      2.60793305	      3.17922922	     12.38644371	      3.71342343	      7.64719411	      9.43863434	      7.99866290	      1.70463333	      7.54750087	      5.66544317	      6.06438006	      2.65879566	      3.17879491	      3.19255189	      8.74459506	      4.08299349	      7.68235624	      7.21563223	      1.51966347	      5.61297031	      4.14084506	      2.91876522	      2.45358617	      3.98720201	      4.09686355	      2.23859515	      1.55861905	      3.65587417	      5.55569892	      4.14718490	     22.64704232	     12.96622533	      3.62647910	      2.85422599	      4.08977204	     10.66649087	      6.59231433	      7.56190363	      8.13109200	     13.95222944	      6.47834074	     31.08496816	     42.35867388	      2.57751475	      2.83737459	      8.45128733	      4.33374239	     12.44604914	      2.00578710	      5.36521359	      1.70288618	     25.00526940	     25.00526940	      8.99963312	      8.99963312	     26.80427955	     26.80427955	      2.76307435	     50.99597937	     -9.56042239	      5.21997485	     -0.02578839	      1.48581788	     -2.76307435	    -50.99597937	      9.56042239	     -1.74637766	      0.02558040	     -0.48301696	     -3.31599387	     20.97615968	     -3.40468921	      0.94473225	     -0.02138609	     -1.00501789	      3.31599387	    -20.97615968	      3.40468921	      0.28075727	      0.00368718	     -0.29758878	    267.87847754	      3.29739875	     58.67554076	    -23.83710902	      6.67797898	    108.82905799	   -267.87847754	     -3.29739875	    -58.67554076	      0.27778437	     -9.37251999	     -1.11942440	    164.96795641	   -109.87636134	    -23.94906536	      7.59404259	     -3.12891069	     66.48982778	   -164.96795641	    109.87636134	     23.94906536	      1.60322285	      3.17039445	     -3.32677833	      0.00000000	      0.00000000	      0.00000000	      0.00000000	      0.00000000	      0.00000000	      0.00000000	      0.00000000	      0.00000000	      0.00000000	      0.00000000	      0.00000000	      0.00000000	      0.00000000	      0.00000000	      0.00000000	      0.00000000	      0.00000000	      0.00000000	      0.00000000	      0.00000000	      0.00000000	      0.00000000	      0.00000000	   -510.05277996	      9.68975166	    101.92159085	     -0.21053485	      9.75779884	     -1.96095413	    510.05277996	     -9.68975166	   -101.92159085	     41.11866936	     -8.84043473	    206.59295141	      0.00000000	      0.00000000	      0.00000000	      0.00000000	      0.00000000	      0.00000000	      0.00000000	      0.00000000	      0.00000000	      0.00000000	      0.00000000	      0.00000000	      0.00000000	      0.00000000	    840.41190379	    399.80041053	     19.20657015	      6.80609748	      0.90617929	      0.00000000	      0.00000000	      0.00000000	      0.00000000	      0.00000000	      0.00000001	      0.00000000	      0.00000000	   -110.00000000	      0.00000000
      0.75289269	      7.54746493	      5.66541840	      6.06435322	      2.65878452	      3.17878287	      3.19253672	      0.00000000	      3.15561556	      3.52161481	      5.16781698	      1.46966029	      5.61294548	      4.14082788	      2.91875256	      2.45357527	      3.98718238	      3.19398451	      2.23858572	      1.36540915	      3.65585820	      5.55567458	      4.14716639	     22.64699741	     12.96617485	      3.62646359	      2.85421874	      4.08974283	    243.27978317	     43.19496684	     84.03520002	     59.94805896	      0.00000000	      0.00000000	     11.51867879	     13.82381464	      2.60264560	      3.17078255	     12.39590804	      3.71643530	      7.65267945	      9.44203968	      8.01677213	      1.71520873	      7.54746493	      5.66541840	      6.06435322	      2.65878452	      3.17878287	      3.19253672	      8.74454262	      4.08297423	      7.68231264	      7.21560135	      1.51965713	      5.61294548	      4.14082788	      2.91875256	      2.45357527	      3.98718238	      4.09685141	      2.23858572	      1.55861244	      3.65585820	      5.55567458	      4.14716639	     22.64699741	     12.96617485	      3.62646359	      2.85421874	      4.08974283	     10.66643155	      6.59228485	      7.56186916	      8.13105513	     13.95209140	      6.47827651	     31.08474691	     42.35858763	      2.57634462	      2.83684009	      8.45124271	      4.33371559	     12.44598282	      2.00577926	      5.36577064	      1.70303720	     25.00516447	     25.00516447	      8.99959199	      8.99959199	     26.80424261	     26.80424261	      2.76307435	     50.99597937	     -9.56042239	      5.21997485	     -0.02578839	      1.48581788	     -2.76307435	    -50.99597937	      9.56042239	     -1.74637766	      0.02558040	     -0.48301696	     -3.31599387	     20.97615968	     -3.40468921	      0.94473225	     -0.02138609	     -1.00501789	      3.31599387	    -20.97615968	      3.40468921	      0.28075727	      0.00368718	     -0.29758878	    267.85692685	      3.17704335	     56.80620357	    -23.07443750	      6.65311658	    108.82148819	   -267.85692685	     -3.17704335	    -56.80620357	      0.26562428	     -9.29426372	     -1.12392581	    164.91003929	   -109.96901536	    -25.30938156	      8.13248201	     -3.14074128	     66.46770241	   -164.91003929	    109.96901536	     25.30938156	      1.61107097	      3.22119120	     -3.33053325	      0.00000000	      0.00000000	      0.00000000	      0.00000000	      0.00000000	      0.00000000	      0.00000000	      0.00000000	      0.00000000	      0.00000000	      0.00000000	      0.00000000	      0.00000000	      0.00000000	      0.00000000	      0.00000000	      0.00000000	      0.00000000	      0.00000000	      0.00000000	      0.00000000	      0.00000000	      0.00000000	      0.00000000	   -509.67887648	      9.91232300	    104.37876565	     -0.21542001	      9.85373085	     -1.96789369	    509.67887648	     -9.91232300	   -104.37876565	     42.10984201	     -8.86464463	    206.44336973	      0.00000000	      0.00000000	      0.00000000	      0.00000000	      0.00000000	      0.00000000	      0.00000000	      0.00000000	      0.00000000	      0.00000000	      0.00000000	      0.00000000	      0.00000000	      0.00000000	    840.42357449	    399.69515515	     19.33222450	      6.92107707	      1.00298111	      0.00000000	      0.00000000	      0.00000000	      0.00000000	      0.00000000	      0.00000001	      0.00000000	      0.00000000	   -110.00000000	      0.00000000
      0.75431559	      7.54742963	      5.66539408	      6.06432686	      2.65877359	      3.17877105	      3.19252182	      0.00000000	      3.15595429	      3.52116134	      5.16873221	      1.47025280	      5.61292110	      4.14081101	      2.91874012	      2.45356457	      3.98716311	      3.19598896	      2.23857646	      1.36543351	      3.65584252	      5.55565068	      4.14714822	     22.64695332	     12.96612529	      3.62644835	      2.85421161	      4.08971416	    243.28523152	     43.19943658	     84.04237510	     59.94796869	      0.00000000	      0.00000000	     11.52390035	     13.82396569	      2.59739214	      3.16159108	     12.40287145	      3.72127502	      7.66016038	      9.44810579	      8.03344467	      1.72563161	      7.54742963	      5.66539408	      6.06432686	      2.65877359	      3.17877105	      3.19252182	      8.74449113	      4.08295532	      7.68226984	      7.21557102	      1.51965092	      5.61292110	      4.14081101	      2.91874012	      2.45356457	      3.98716311	      4.09683950	      2.23857646	      1.55860595	      3.65584252	      5.55565068	      4.14714822	     22.64695332	     12.96612529	      3.62644835	      2.85421161	      4.08971416	     10.66637331	      6.59225591	      7.56183532	      8.13101893	     13.95195584	      6.47821344	     31.08452968	     42.35850295	      2.57517152	      2.83630522	      8.45119890	      4.33368927	     12.44591770	      2.00577157	      5.36632926	      1.70318850	     25.00506144	     25.00506144	      8.99955161	      8.99955161	     26.80420633	     26.80420633	      2.76307435	     50.99597937	     -9.56042239	      5.21997485	     -0.02578839	      1.48581788	     -2.76307435	    -50.99597937	      9.56042239	     -1.74637766	      0.02558040	     -0.48301696	     -3.31599387	     20.97615968	     -3.40468921	      0.94473225	     -0.02138609	     -1.00501789	      3.31599387	    -20.97615968	      3.40468921	      0.28075727	      0.00368718	     -0.29758878	    267.56533183	      3.25892981	     57.96427251	    -23.54713245	      6.66163671	    108.70184785	   -267.56533183	     -3.25892981	    -57.96427251	      0.27339412	     -9.33429902	     -1.11910302	    165.02637195	   -109.93620427	    -24.43194481	      7.78450832	     -3.13491469	     66.51364238	   -165.02637195	    109.93620427	     24.43194481	      1.60672960	      3.19015589	     -3.32878633	      0.00000000	      0.00000000	      0.00000000	      0.00000000	      0.00000000	      0.00000000	      0.00000000	      0.00000000	      0.00000000	      0.00000000	      0.00000000	      0.00000000	      0.00000000	      0.00000000	      0.00000000	      0.00000000	      0.00000000	      0.00000000	      0.00000000	      0.00000000	      0.00000000	      0.00000000	      0.00000000	      0.00000000	   -510.18772086	      9.77874722	    102.82647369	     -0.21216816	      9.79743983	     -1.96442385	    510.18772086	     -9.77874722	   -102.82647369	     41.48350295	     -8.85401987	    206.64812067	      0.00000000	      0.00000000	      0.00000000	      0.00000000	      0.00000000	      0.00000000	      0.00000000	      0.00000000	      0.00000000	      0.00000000	      0.00000000	      0.00000000	      0.00000000	      0.00000000	    840.49008660	    399.80632532	     19.22144673	      6.81741555	      0.91436069	      0.00000000	      0.00000000	      0.00000000	      0.00000000	      0.00000000	      0.00000001	      0.00000000	      0.00000000	   -110.00000000	      0.00000000
